<svg width="28" height="28" viewBox="0 0 28 28" fill="none" xmlns="http://www.w3.org/2000/svg">
    <path id="bg" fill-rule="evenodd" clip-rule="evenodd" d="M0 4.82757C0 2.16139 2.16139 0 4.82757 0H23.1724C25.8386 0 28 2.16139 28 4.82757V20.4298C28 23.1882 24.5095 24.3853 22.8166 22.2075L17.5241 15.3994V23.6552C17.5241 26.0547 15.5789 28 13.1793 28H4.82757C2.16139 28 0 25.8386 0 23.1724V4.82757ZM4.82757 3.86207C4.29435 3.86207 3.86207 4.29435 3.86207 4.82757V23.1724C3.86207 23.7056 4.29435 24.1379 4.82757 24.1379H13.3241C13.5907 24.1379 13.6621 23.9218 13.6621 23.6552V12.5842C13.6621 9.8259 17.1526 8.62876 18.8455 10.8065L24.1379 17.6146V4.82757C24.1379 4.29435 24.1884 3.86207 23.6552 3.86207H4.82757Z" fill="#00E0D9"/>
    <path id="gradient" fill-rule="evenodd" clip-rule="evenodd" d="M0 4.82757C0 2.16139 2.16139 0 4.82757 0H23.1724C25.8386 0 28 2.16139 28 4.82757V20.4298C28 23.1882 24.5095 24.3853 22.8166 22.2075L17.5241 15.3994V23.6552C17.5241 26.0547 15.5789 28 13.1793 28H4.82757C2.16139 28 0 25.8386 0 23.1724V4.82757ZM4.82757 3.86207C4.29435 3.86207 3.86207 4.29435 3.86207 4.82757V23.1724C3.86207 23.7056 4.29435 24.1379 4.82757 24.1379H13.3241C13.5907 24.1379 13.6621 23.9218 13.6621 23.6552V12.5842C13.6621 9.8259 17.1526 8.62876 18.8455 10.8065L24.1379 17.6146V4.82757C24.1379 4.29435 24.1884 3.86207 23.6552 3.86207H4.82757Z" fill="url(#paint0_linear_1_3)"/>
    <path id="shadow" fill-rule="evenodd" clip-rule="evenodd" d="M0 4.82757C0 2.16139 2.16139 0 4.82757 0H23.1724C25.8386 0 28 2.16139 28 4.82757V20.4298C28 23.1882 24.5095 24.3853 22.8166 22.2075L17.5241 15.3994V23.6552C17.5241 26.0547 15.5789 28 13.1793 28H4.82757C2.16139 28 0 25.8386 0 23.1724V4.82757ZM4.82757 3.86207C4.29435 3.86207 3.86207 4.29435 3.86207 4.82757V23.1724C3.86207 23.7056 4.29435 24.1379 4.82757 24.1379H13.3241C13.5907 24.1379 13.6621 23.9218 13.6621 23.6552V12.5842C13.6621 9.8259 17.1526 8.62876 18.8455 10.8065L24.1379 17.6146V4.82757C24.1379 4.29435 24.1884 3.86207 23.6552 3.86207H4.82757Z" fill="url(#paint1_linear_1_3)" fill-opacity="0.4"/>
    <path id="highlight" d="M23.1723 0C25.8385 0 27.9999 2.16139 27.9999 4.82757V20.4298C27.9999 23.1882 24.5094 24.3853 22.8165 22.2075L17.5241 15.3994V23.6552C17.5241 26.0547 15.5788 28 13.1792 28C13.4458 28 13.662 27.7838 13.662 27.5172V12.5842C13.662 9.8259 17.1525 8.62876 18.8454 10.8065L24.1379 17.6146V0.965519C24.1379 0.432277 23.7056 0 23.1723 0Z" fill="#63F655"/>
    <defs>
        <linearGradient id="paint0_linear_1_3" x1="28" y1="28" x2="3.37932" y2="9.18556e-06" gradientUnits="userSpaceOnUse">
            <stop stop-color="#62F755"/>
            <stop offset="1" stop-color="#8FF986" stop-opacity="0"/>
        </linearGradient>
        <linearGradient id="paint1_linear_1_3" x1="28" y1="28" x2="11.369" y2="21.531" gradientUnits="userSpaceOnUse">
            <stop stop-opacity="0.9"/>
            <stop offset="1" stop-color="#1A1A1A" stop-opacity="0"/>
        </linearGradient>
        <linearGradient id="paint0_linear_6882_11484" x1="28" y1="28" x2="3.37932" y2="9.18556e-06" gradientUnits="userSpaceOnUse">
            <stop stop-color="#B9FFB3"/>
            <stop offset="1" stop-color="#B9FFB3" stop-opacity="0"/>
        </linearGradient>
        <linearGradient id="paint1_linear_6882_11484" x1="28" y1="28" x2="11.369" y2="21.531" gradientUnits="userSpaceOnUse">
            <stop stop-color="#1A1A1A" stop-opacity="0.9"/>
            <stop offset="1" stop-color="#1A1A1A" stop-opacity="0"/>
        </linearGradient>
    </defs>
    <style>
        @media (prefers-color-scheme: dark) {
            #bg {
                fill: #12FFF7;
            }

            #gradient {
                fill: url(#paint0_linear_6882_11484);
            }

            #shadow {
                fill: url(#paint1_linear_6882_11484);
                fill-opacity: 1;
            }

            #highlight {
                fill: #B9FFB3;
            }
        }
    </style>
</svg>
